<?xml version="1.0" standalone="no"?>
<!DOCTYPE svg PUBLIC "-//W3C//DTD SVG 20010904//EN"
 "http://www.w3.org/TR/2001/REC-SVG-20010904/DTD/svg10.dtd">
<svg version="1.0" xmlns="http://www.w3.org/2000/svg"
 width="1254.000000pt" height="1254.000000pt" viewBox="0 0 1254.000000 1254.000000"
 preserveAspectRatio="xMidYMid meet">

<g transform="translate(0.000000,1254.000000) scale(0.100000,-0.100000)"
fill="#000000" stroke="none">
<path d="M0 6270 l0 -6270 6270 0 6270 0 0 6270 0 6270 -6270 0 -6270 0 0
-6270z m6364 4252 c136 -315 283 -646 516 -1162 21 -47 91 -202 155 -345 126
-279 146 -324 483 -1065 121 -267 250 -552 287 -635 98 -219 207 -456 450
-985 65 -140 175 -381 245 -535 70 -154 178 -390 240 -525 62 -135 156 -342
210 -460 54 -118 155 -339 225 -490 70 -151 185 -399 255 -550 165 -357 176
-379 250 -482 156 -219 420 -401 678 -468 l42 -11 0 -54 0 -55 -1222 2 -1223
3 -3 51 -3 50 78 25 c190 59 285 174 270 327 -8 90 -42 176 -387 967 -50 116
-128 297 -173 402 -45 106 -85 193 -88 193 -3 0 -57 -64 -120 -142 -63 -79
-165 -206 -228 -283 -63 -77 -116 -142 -118 -144 -2 -2 -5 -2 -8 0 -2 3 80
187 184 410 359 771 391 841 391 856 0 8 -68 85 -152 171 -197 204 -481 492
-484 492 -1 0 -10 -33 -19 -72 -50 -215 -193 -784 -230 -923 -74 -269 -187
-675 -340 -1220 -231 -824 -238 -846 -242 -841 -4 4 -55 198 -178 681 -46 182
-126 499 -179 705 -92 364 -225 917 -341 1420 -31 135 -57 246 -59 247 -2 2
-438 -452 -599 -623 l-67 -72 206 -478 c251 -584 327 -765 321 -770 -4 -4 -53
59 -305 390 -67 88 -126 162 -131 164 -4 1 -39 -71 -76 -160 -63 -153 -148
-349 -445 -1037 -111 -256 -124 -291 -128 -355 -4 -65 -1 -76 29 -135 41 -78
106 -127 219 -165 l75 -25 3 -55 3 -56 -1216 0 -1215 0 0 54 0 54 83 25 c279
88 526 283 680 537 25 41 126 248 225 460 99 212 216 462 259 555 114 241 387
832 471 1015 39 85 135 297 215 470 208 453 437 955 572 1255 147 327 423 936
525 1160 230 505 593 1314 797 1780 137 312 240 550 247 573 4 12 13 22 19 22
7 0 39 -62 71 -138z"/>
<path d="M5952 7996 c-142 -27 -283 -80 -364 -138 -43 -30 -37 -63 21 -119
l49 -47 -24 -82 c-39 -134 -46 -199 -29 -256 25 -83 20 -114 -40 -234 -30 -60
-55 -120 -55 -133 0 -28 22 -50 73 -70 37 -16 37 -17 37 -72 0 -31 5 -66 12
-78 7 -12 11 -32 9 -44 -1 -12 5 -36 14 -53 12 -23 14 -47 10 -103 -10 -119
23 -154 159 -168 49 -5 102 -17 124 -28 20 -10 115 -86 210 -169 l173 -149
242 181 243 181 7 118 c11 180 29 247 88 340 80 125 122 222 122 287 0 57 -13
94 -43 120 -10 9 -22 44 -29 85 -32 183 -170 384 -346 505 -61 42 -177 96
-250 116 -82 22 -317 28 -413 10z"/>
<path d="M5930 6035 c-27 -33 -39 -293 -20 -454 9 -83 21 -111 45 -111 7 0 71
43 141 95 95 70 134 94 149 90 50 -15 109 -17 145 -5 l39 13 118 -88 c145
-108 158 -114 181 -91 15 15 17 45 20 239 3 237 -3 304 -30 321 -17 10 -42 -5
-238 -144 l-55 -40 -48 17 c-47 15 -73 13 -132 -13 -6 -2 -71 39 -144 91 -73
52 -139 95 -146 95 -7 0 -18 -7 -25 -15z"/>
</g>
</svg>
