<?xml version="1.0" standalone="no"?>
<!DOCTYPE svg PUBLIC "-//W3C//DTD SVG 20010904//EN"
 "http://www.w3.org/TR/2001/REC-SVG-20010904/DTD/svg10.dtd">
<svg version="1.0" xmlns="http://www.w3.org/2000/svg"
 width="1254.000000pt" height="1254.000000pt" viewBox="0 0 1254.000000 1254.000000"
 preserveAspectRatio="xMidYMid meet">

<g transform="translate(0.000000,1254.000000) scale(0.100000,-0.100000)"
fill="#000000" stroke="none">
<path d="M6201 10738 c-79 -183 -420 -934 -686 -1513 -81 -176 -236 -516 -345
-755 -109 -239 -282 -619 -385 -845 -103 -225 -252 -552 -330 -725 -79 -173
-158 -346 -175 -385 -120 -261 -445 -972 -645 -1410 -131 -286 -276 -603 -322
-705 -134 -291 -283 -618 -377 -825 -145 -317 -192 -391 -348 -541 -140 -135
-284 -223 -466 -284 l-87 -29 0 -53 0 -53 1215 0 1215 0 3 51 3 50 -88 34
c-74 28 -97 42 -150 95 -72 72 -88 115 -80 215 5 66 29 124 334 820 33 74 122
278 198 453 l139 319 31 -38 c52 -65 367 -477 383 -502 50 -76 4 40 -334 852
-85 203 -154 373 -154 378 0 12 672 709 678 704 2 -3 17 -65 32 -138 136 -642
251 -1111 622 -2518 44 -168 91 -350 105 -405 14 -55 28 -106 32 -113 4 -7 37
92 74 220 554 1940 625 2206 757 2833 12 55 24 108 27 118 4 15 55 -33 231
-215 125 -128 273 -281 331 -340 l104 -107 -26 -60 c-14 -33 -93 -208 -176
-388 -292 -640 -371 -817 -367 -820 2 -2 95 109 207 248 260 322 246 305 252
299 7 -7 304 -686 439 -1005 174 -409 205 -489 218 -550 35 -167 -62 -301
-265 -365 -57 -18 -65 -27 -65 -76 l0 -44 148 0 c81 -1 642 -1 1247 -2 l1100
-1 3 50 3 50 -86 27 c-295 92 -545 285 -696 536 -36 61 -178 370 -711 1550
-116 256 -243 537 -283 625 -40 88 -211 466 -380 840 -310 686 -566 1252
-1065 2350 -670 1475 -843 1856 -916 2022 -46 105 -51 113 -77 113 -23 0 -31
-7 -46 -42z m104 -2728 c149 -38 274 -110 385 -222 127 -128 210 -278 229
-414 6 -41 16 -71 25 -76 26 -14 49 -93 44 -148 -6 -60 -76 -207 -137 -289
-51 -68 -72 -153 -79 -324 l-5 -128 -243 -184 c-134 -102 -247 -185 -252 -185
-4 0 -82 63 -172 140 -227 193 -223 191 -328 202 -111 13 -150 26 -176 61 -18
25 -21 40 -18 118 2 68 -1 95 -14 113 -8 14 -14 35 -13 48 2 13 -2 33 -9 45
-7 12 -12 47 -12 78 0 52 -2 57 -31 73 -54 30 -79 53 -79 73 0 11 25 69 55
129 60 120 66 156 39 231 -20 57 -13 136 26 271 l30 102 -36 30 c-33 26 -64
78 -64 105 0 14 122 80 197 108 201 73 456 90 638 43z m-277 -2080 c139 -97
142 -99 169 -85 36 19 83 19 131 0 l39 -16 141 101 c121 87 144 100 161 91 11
-6 22 -19 26 -29 8 -28 9 -408 0 -474 -8 -66 -25 -86 -58 -71 -12 6 -78 52
-147 102 -80 58 -130 89 -140 85 -58 -25 -92 -28 -137 -12 l-46 17 -131 -93
c-162 -115 -152 -109 -174 -97 -29 15 -47 243 -33 406 6 66 11 125 11 132 0
13 27 43 39 43 5 0 72 -45 149 -100z"/>
</g>
</svg>
